<svg data-v-0dd9719b="" version="1.0" xmlns="http://www.w3.org/2000/svg" xmlns:xlink="http://www.w3.org/1999/xlink" width="100%" height="100%" viewBox="0 0 340.000000 250.000000" preserveAspectRatio="xMidYMid meet" color-interpolation-filters="sRGB" style="margin: auto;"><g><path d="M30.95-35.55L30.3-31.1 33.95-31.1 34.2-32.65 32.6-34.55 41.55-34.55 41.05-31.1 46.1-31.1 45.45-26.35 40.4-26.35 39.85-22.45 43.9-22.45 43.2-17.7 39.15-17.7 38.6-13.8 42.65-13.8 42-9.05 37.95-9.05 37.4-5.15 42.5-5.15 41.85-0.45 26-0.45 25.9 0.35 19 0.35 22.85-27.1 21.55-26.65 22.35-32.35 30.95-35.55ZM20.9-22.5L20.25-18 17.75-18 15.65-2.85Q15.4-1.4 14.73-0.53 14.05 0.35 13.25 0.35L13.25 0.35 5.95 0.35 8.75-4.2 10.7-18 2.55-18 3.15-22.35 5.3-28.15 10.5-28.15 8.9-22.5 11.3-22.5 12.35-29.8 4.3-29.8 5-34.55 21.75-34.55 21.05-29.8 19.4-29.8 18.35-22.5 20.9-22.5ZM4.65-16.45L9.85-16.45 5.05 0.4-0.1 0.4 4.65-16.45ZM28.4-17.7L27.85-13.8 31.55-13.8 32.1-17.7 28.4-17.7ZM27.2-9.05L26.65-5.15 30.35-5.15 30.9-9.05 27.2-9.05ZM29.65-26.35L29.1-22.45 32.75-22.45 33.3-26.35 29.65-26.35ZM50.95-17.5L53.1-32.7 51.45-34.6 91.35-34.6 88.95-17.5 50.95-17.5ZM78.95-0.4L57.1-0.4 59.25-15.6 67.8-15.6 66.45-6.1 77.85-6.1 80-8 78.95-0.4ZM58.15-14.65L54.25-0.4 46.65-0.4 50.55-14.65 58.15-14.65ZM80.85-0.4L80.95-14.65 88.55-14.65 88.45-0.4 80.85-0.4ZM70.05-8L70.3-16.55 77.85-16.55 77.6-8 70.05-8ZM62.3-30.8L61.9-27.95 66.65-27.95 67.05-30.8 62.3-30.8ZM61.4-24.15L61-21.3 65.75-21.3 66.15-24.15 61.4-24.15ZM80-21.3L80.4-24.15 75.65-24.15 75.25-21.3 80-21.3ZM81.3-30.8L76.55-30.8 76.15-27.95 80.9-27.95 81.3-30.8ZM120.85-20.4L124-23.4 124.65-28.15 106.1-28.15 104.85-19.25 136-19.25 133.7-3Q133.5-1.55 132.22-0.58 130.95 0.4 129.5 0.4L129.5 0.4 113.2 0.4 117.5-3.45 124.45-3.45 126.1-15 95.5-15 97.95-32.4 110.8-32.4 111.65-33.7 110.1-35.5 122.25-35.5 120.2-32.4 134.3-32.4 133.1-23.9Q132.85-22.45 131.7-21.43 130.55-20.4 129.1-20.4L129.1-20.4 120.85-20.4ZM102.75-13.25L102.05-8.4 104.9-8.4 105.7-14.1 113.35-14.1 112.55-8.4 115.4-8.4 116.1-13.35 123.45-13.35 122.25-4.7 94-4.7 95.2-13.25 102.75-13.25ZM108.45-26.6L116.7-26.6 119.45-20.75 111.2-20.75 108.45-26.6Z" transform="translate(0.10000000149011612, 35.54999923706055)"></path></g></svg>