<svg data-v-0dd9719b="" version="1.0" xmlns="http://www.w3.org/2000/svg" xmlns:xlink="http://www.w3.org/1999/xlink" width="100%" height="100%" viewBox="0 0 340.000000 250.000000" preserveAspectRatio="xMidYMid meet" color-interpolation-filters="sRGB" style="margin: auto;"> <rect data-v-0dd9719b="" x="0" y="0" width="100%" height="100%" fill="#ffffff" fill-opacity="0" class="background"></rect> <rect data-v-0dd9719b="" x="0" y="0" width="100%" height="100%" fill="url(#watermark)" fill-opacity="1" class="watermarklayer"></rect> <g data-v-0dd9719b="" class="iconmbgsvg" transform="translate(84.9749984741211,92.54301834106445)"><g fill="#3b3b3b" hollow-target="text"><g mask="url(#2725e386-db20-4978-8746-e39705b7c501)" transform="matrix(0.9515519179687499,0,0,0.9515519179687499,1.6956828710937515,1.5704547882106468)" opacity="1"><g><rect fill="#00b8ee" fill-opacity="0" stroke-width="2" x="0" y="0" width="70" height="64.83042213866301" class="image-rect"></rect> <svg x="0" y="0" width="70" height="64.83042213866301" filtersec="colorsb7061789625" class="image-svg-svg primary" style="overflow: visible;"><svg xmlns="http://www.w3.org/2000/svg" viewBox="11.858745574951172 16.740005493164062 1044.271240234375 967.1500244140625"><path fill="#3295da" d="M347.01 826.46l-90.64 157.43h354.77c160.5 0 308.8-85.85 389.03-225.2l55.96-97.19H631.97c-117.57 0-226.19 62.89-284.96 164.96zm656.5-256.36L814.57 241.94c-80.23-139.36-228.54-225.2-389.04-225.2H313.64l223.65 388.42c58.77 102.07 167.4 164.94 284.95 164.94h181.27zM260.89 108.34L72.02 436.37c-80.22 139.31-80.21 310.94 0 450.26l56.01 97.26 223.55-388.28c58.75-102.04 58.75-227.75 0-329.79l-90.69-157.48z"></path></svg></svg> <!----></g></g> <g transform="translate(33.94999694824219,28.963960647583008)"><g data-gra="path-name" fill-rule="" class="tp-name" transform="matrix(0.8318581679687499,0,0,0.8318581679687499,11.442052182854717,3.0223494949027394)" opacity="1"><g transform="scale(1)"><g><path d="M30.95-35.55L30.3-31.1 33.95-31.1 34.2-32.65 32.6-34.55 41.55-34.55 41.05-31.1 46.1-31.1 45.45-26.35 40.4-26.35 39.85-22.45 43.9-22.45 43.2-17.7 39.15-17.7 38.6-13.8 42.65-13.8 42-9.05 37.95-9.05 37.4-5.15 42.5-5.15 41.85-0.45 26-0.45 25.9 0.35 19 0.35 22.85-27.1 21.55-26.65 22.35-32.35 30.95-35.55ZM20.9-22.5L20.25-18 17.75-18 15.65-2.85Q15.4-1.4 14.73-0.53 14.05 0.35 13.25 0.35L13.25 0.35 5.95 0.35 8.75-4.2 10.7-18 2.55-18 3.15-22.35 5.3-28.15 10.5-28.15 8.9-22.5 11.3-22.5 12.35-29.8 4.3-29.8 5-34.55 21.75-34.55 21.05-29.8 19.4-29.8 18.35-22.5 20.9-22.5ZM4.65-16.45L9.85-16.45 5.05 0.4-0.1 0.4 4.65-16.45ZM28.4-17.7L27.85-13.8 31.55-13.8 32.1-17.7 28.4-17.7ZM27.2-9.05L26.65-5.15 30.35-5.15 30.9-9.05 27.2-9.05ZM29.65-26.35L29.1-22.45 32.75-22.45 33.3-26.35 29.65-26.35ZM50.95-17.5L53.1-32.7 51.45-34.6 91.35-34.6 88.95-17.5 50.95-17.5ZM78.95-0.4L57.1-0.4 59.25-15.6 67.8-15.6 66.45-6.1 77.85-6.1 80-8 78.95-0.4ZM58.15-14.65L54.25-0.4 46.65-0.4 50.55-14.65 58.15-14.65ZM80.85-0.4L80.95-14.65 88.55-14.65 88.45-0.4 80.85-0.4ZM70.05-8L70.3-16.55 77.85-16.55 77.6-8 70.05-8ZM62.3-30.8L61.9-27.95 66.65-27.95 67.05-30.8 62.3-30.8ZM61.4-24.15L61-21.3 65.75-21.3 66.15-24.15 61.4-24.15ZM80-21.3L80.4-24.15 75.65-24.15 75.25-21.3 80-21.3ZM81.3-30.8L76.55-30.8 76.15-27.95 80.9-27.95 81.3-30.8ZM120.85-20.4L124-23.4 124.65-28.15 106.1-28.15 104.85-19.25 136-19.25 133.7-3Q133.5-1.55 132.22-0.58 130.95 0.4 129.5 0.4L129.5 0.4 113.2 0.4 117.5-3.45 124.45-3.45 126.1-15 95.5-15 97.95-32.4 110.8-32.4 111.65-33.7 110.1-35.5 122.25-35.5 120.2-32.4 134.3-32.4 133.1-23.9Q132.85-22.45 131.7-21.43 130.55-20.4 129.1-20.4L129.1-20.4 120.85-20.4ZM102.75-13.25L102.05-8.4 104.9-8.4 105.7-14.1 113.35-14.1 112.55-8.4 115.4-8.4 116.1-13.35 123.45-13.35 122.25-4.7 94-4.7 95.2-13.25 102.75-13.25ZM108.45-26.6L116.7-26.6 119.45-20.75 111.2-20.75 108.45-26.6Z" transform="translate(0.10000000149011612, 35.54999923706055)"></path></g> <!----> <!----> <!----> <!----> <!----> <!----> <!----></g></g> </g></g></g><mask id="2725e386-db20-4978-8746-e39705b7c501"><g fill="white"><g><rect fill-opacity="1" stroke-width="2" x="0" y="0" width="70" height="64.83042213866301" class="image-rect"></rect> <svg x="0" y="0" width="70" height="64.83042213866301" filtersec="colorsb7061789625" class="image-svg-svg primary" style="overflow: visible;"><svg xmlns="http://www.w3.org/2000/svg" viewBox="11.858745574951172 16.740005493164062 1044.271240234375 967.1500244140625"><path d="M347.01 826.46l-90.64 157.43h354.77c160.5 0 308.8-85.85 389.03-225.2l55.96-97.19H631.97c-117.57 0-226.19 62.89-284.96 164.96zm656.5-256.36L814.57 241.94c-80.23-139.36-228.54-225.2-389.04-225.2H313.64l223.65 388.42c58.77 102.07 167.4 164.94 284.95 164.94h181.27zM260.89 108.34L72.02 436.37c-80.22 139.31-80.21 310.94 0 450.26l56.01 97.26 223.55-388.28c58.75-102.04 58.75-227.75 0-329.79l-90.69-157.48z"></path></svg></svg> </g></g> <g transform="translate(33.94999694824219,28.963960647583008)" fill="black" stroke="black" stroke-width="6" stroke-linejoin="round"><g data-gra="path-name" fill-rule="" class="tp-name" transform="matrix(0.8318581679687499,0,0,0.8318581679687499,11.442052182854717,3.0223494949027394)" opacity="1"><g transform="scale(1)"><g><path d="M30.95-35.55L30.3-31.1 33.95-31.1 34.2-32.65 32.6-34.55 41.55-34.55 41.05-31.1 46.1-31.1 45.45-26.35 40.4-26.35 39.85-22.45 43.9-22.45 43.2-17.7 39.15-17.7 38.6-13.8 42.65-13.8 42-9.05 37.95-9.05 37.4-5.15 42.5-5.15 41.85-0.45 26-0.45 25.9 0.35 19 0.35 22.85-27.1 21.55-26.65 22.35-32.35 30.95-35.55ZM20.9-22.5L20.25-18 17.75-18 15.65-2.85Q15.4-1.4 14.73-0.53 14.05 0.35 13.25 0.35L13.25 0.35 5.95 0.35 8.75-4.2 10.7-18 2.55-18 3.15-22.35 5.3-28.15 10.5-28.15 8.9-22.5 11.3-22.5 12.35-29.8 4.3-29.8 5-34.55 21.75-34.55 21.05-29.8 19.4-29.8 18.35-22.5 20.9-22.5ZM4.65-16.45L9.85-16.45 5.05 0.4-0.1 0.4 4.65-16.45ZM28.4-17.7L27.85-13.8 31.55-13.8 32.1-17.7 28.4-17.7ZM27.2-9.05L26.65-5.15 30.35-5.15 30.9-9.05 27.2-9.05ZM29.65-26.35L29.1-22.45 32.75-22.45 33.3-26.35 29.65-26.35ZM50.95-17.5L53.1-32.7 51.45-34.6 91.35-34.6 88.95-17.5 50.95-17.5ZM78.95-0.4L57.1-0.4 59.25-15.6 67.8-15.6 66.45-6.1 77.85-6.1 80-8 78.95-0.4ZM58.15-14.65L54.25-0.4 46.65-0.4 50.55-14.65 58.15-14.65ZM80.85-0.4L80.95-14.65 88.55-14.65 88.45-0.4 80.85-0.4ZM70.05-8L70.3-16.55 77.85-16.55 77.6-8 70.05-8ZM62.3-30.8L61.9-27.95 66.65-27.95 67.05-30.8 62.3-30.8ZM61.4-24.15L61-21.3 65.75-21.3 66.15-24.15 61.4-24.15ZM80-21.3L80.4-24.15 75.65-24.15 75.25-21.3 80-21.3ZM81.3-30.8L76.55-30.8 76.15-27.95 80.9-27.95 81.3-30.8ZM120.85-20.4L124-23.4 124.65-28.15 106.1-28.15 104.85-19.25 136-19.25 133.7-3Q133.5-1.55 132.22-0.58 130.95 0.4 129.5 0.4L129.5 0.4 113.2 0.4 117.5-3.45 124.45-3.45 126.1-15 95.5-15 97.95-32.4 110.8-32.4 111.65-33.7 110.1-35.5 122.25-35.5 120.2-32.4 134.3-32.4 133.1-23.9Q132.85-22.45 131.7-21.43 130.55-20.4 129.1-20.4L129.1-20.4 120.85-20.4ZM102.75-13.25L102.05-8.4 104.9-8.4 105.7-14.1 113.35-14.1 112.55-8.4 115.4-8.4 116.1-13.35 123.45-13.35 122.25-4.7 94-4.7 95.2-13.25 102.75-13.25ZM108.45-26.6L116.7-26.6 119.45-20.75 111.2-20.75 108.45-26.6Z" transform="translate(0.10000000149011612, 35.54999923706055)"></path></g>       </g></g> <g data-gra="path-slogan" fill-rule="" class="tp-slogan" transform="matrix(0.09922379296874999,0,0,0.09922379296874999,85.91511897257644,-15.01677380444001)" fill="white" opacity="1">  <g transform="scale(1, 1)"><g transform="scale(1)"><path d="M7.83-8.58L4.59-3.47L4.59 0L3.42 0L3.42-3.47L0.19-8.58L1.55-8.58L3.98-4.45L6.47-8.58L7.83-8.58ZM14.53 0L13.69-2.48L10.22-2.48L9.33 0L8.16 0L11.39-8.58L12.70-8.58L15.80 0L14.53 0ZM11.95-7.31L10.59-3.52L13.27-3.52L12-7.31L11.95-7.31ZM23.11-6.09L23.11-6.09L22.03-6.09Q21.94-7.73 19.88-7.83L19.88-7.83Q17.95-7.78 17.95-6.33L17.95-6.33Q17.95-5.39 18.98-5.25L18.98-5.25L21.42-4.69Q23.34-4.22 23.34-2.34L23.34-2.34Q23.30 0.05 19.97 0.14L19.97 0.14Q18.14 0.14 17.39-0.61L17.39-0.61Q16.45-1.31 16.50-2.77L16.50-2.77L17.63-2.77Q17.67-0.80 19.97-0.75L19.97-0.75Q22.22-0.80 22.27-2.20L22.27-2.20Q22.45-3.38 20.39-3.75L20.39-3.75L18.61-4.13Q16.78-4.64 16.78-6.19L16.78-6.19Q16.92-8.72 19.78-8.81L19.78-8.81Q23.02-8.81 23.11-6.09ZM24.98-8.58L26.16-8.58L26.16 0L24.98 0L24.98-8.58ZM31.64 0L28.17 0L28.17-8.58L31.69-8.58Q35.16-8.39 35.30-4.41L35.30-4.41Q35.11-0.09 31.64 0L31.64 0ZM31.50-7.64L29.34-7.64L29.34-0.98L31.59-0.98Q34.03-1.13 34.13-4.31L34.13-4.31Q34.08-7.55 31.50-7.64L31.50-7.64ZM42.42 0L41.58-2.48L38.11-2.48L37.22 0L36.05 0L39.28-8.58L40.59-8.58L43.69 0L42.42 0ZM39.84-7.31L38.48-3.52L41.16-3.52L39.89-7.31L39.84-7.31ZM51.52-4.27L51.52-4.27Q51.33-7.64 48.52-7.83L48.52-7.83Q45.66-7.69 45.52-4.27L45.52-4.27Q45.66-0.94 48.52-0.80L48.52-0.80Q51.33-0.98 51.52-4.27ZM52.69-4.27L52.69-4.27Q52.41 0 48.52 0.14L48.52 0.14Q44.58 0 44.30-4.27L44.30-4.27Q44.53-8.72 48.52-8.81L48.52-8.81Q52.41-8.67 52.69-4.27ZM54.19-1.27L55.45-1.27L55.45 0L54.19 0L54.19-1.27ZM64.55-6.05L64.55-6.05L63.42-6.05Q63-7.78 61.03-7.83L61.03-7.83Q58.31-7.69 58.22-4.36L58.22-4.36Q58.22-0.80 61.08-0.80L61.08-0.80Q63.05-0.84 63.52-3.19L63.52-3.19L64.64-3.19Q64.13 0.05 60.84 0.14L60.84 0.14Q57.09 0 57-4.31L57-4.31Q57.19-8.63 61.03-8.81L61.03-8.81Q64.08-8.72 64.55-6.05ZM72.80-4.27L72.80-4.27Q72.61-7.64 69.80-7.83L69.80-7.83Q66.94-7.69 66.80-4.27L66.80-4.27Q66.94-0.94 69.80-0.80L69.80-0.80Q72.61-0.98 72.80-4.27ZM73.97-4.27L73.97-4.27Q73.69 0 69.80 0.14L69.80 0.14Q65.86 0 65.58-4.27L65.58-4.27Q65.81-8.72 69.80-8.81L69.80-8.81Q73.69-8.67 73.97-4.27ZM83.58-8.58L83.58 0L82.45 0L82.45-5.06Q82.45-5.77 82.45-7.22L82.45-7.22L80.02 0L78.84 0L76.45-7.22L76.41-7.22Q76.41-6.70 76.45-5.67L76.45-5.67Q76.45-5.16 76.45-5.06L76.45-5.06L76.45 0L75.28 0L75.28-8.58L76.97-8.58L79.45-1.31L81.89-8.58L83.58-8.58Z" transform="translate(-0.1875, 8.8125)"></path></g></g></g></g></mask><defs v-gra="od"></defs></svg>