<svg data-v-0dd9719b="" version="1.0" xmlns="http://www.w3.org/2000/svg" xmlns:xlink="http://www.w3.org/1999/xlink" width="100%" height="100%" viewBox="0 0 340.000000 250.000000" preserveAspectRatio="xMidYMid meet" color-interpolation-filters="sRGB" style="margin: auto;"><g xmlns="http://www.w3.org/2000/svg"><rect fill="#3295da" fill-opacity="0" stroke-width="2" x="0" y="0" width="70" height="64.83042213866301" class="image-rect"/> <svg x="0" y="0" width="70" height="64.83042213866301" filtersec="colorsb7061789625" class="image-svg-svg primary" style="overflow: visible;"><svg xmlns="http://www.w3.org/2000/svg" viewBox="11.858745574951172 16.740005493164062 1044.271240234375 967.1500244140625"><path fill="#00B8EE" d="M347.01 826.46l-90.64 157.43h354.77c160.5 0 308.8-85.85 389.03-225.2l55.96-97.19H631.97c-117.57 0-226.19 62.89-284.96 164.96zm656.5-256.36L814.57 241.94c-80.23-139.36-228.54-225.2-389.04-225.2H313.64l223.65 388.42c58.77 102.07 167.4 164.94 284.95 164.94h181.27zM260.89 108.34L72.02 436.37c-80.22 139.31-80.21 310.94 0 450.26l56.01 97.26 223.55-388.28c58.75-102.04 58.75-227.75 0-329.79l-90.69-157.48z"/></svg></svg> <!----></g></svg>